HIERARCHY
ROOT Hips
{
	OFFSET 0.00000 0.00000 0.00000
	CHANNELS 6 Xposition Yposition Zposition Zrotation Yrotation Xrotation 
	JOINT LHipJoint
	{
		OFFSET 0 0 0
		CHANNELS 3 Zrotation Yrotation Xrotation
		JOINT LeftUpLeg
		{
			OFFSET 1.78158 -1.79992 1.25746
			CHANNELS 3 Zrotation Yrotation Xrotation
			JOINT LeftLeg
			{
				OFFSET 2.48433 -6.82566 0.00000
				CHANNELS 3 Zrotation Yrotation Xrotation
				JOINT LeftFoot
				{
					OFFSET 2.69722 -7.41057 0.00000
					CHANNELS 3 Zrotation Yrotation Xrotation
					JOINT LeftToeBase
					{
						OFFSET 0.10733 -0.29489 1.75071
						CHANNELS 3 Zrotation Yrotation Xrotation
						End Site
						{
							OFFSET 0.00000 -0.00000 0.90224
						}
					}
				}
			}
		}
	}
	JOINT RHipJoint
	{
		OFFSET 0 0 0
		CHANNELS 3 Zrotation Yrotation Xrotation
		JOINT RightUpLeg
		{
			OFFSET -1.91234 -1.79993 1.25746
			CHANNELS 3 Zrotation Yrotation Xrotation
			JOINT RightLeg
			{
				OFFSET -2.33122 -6.40498 0.00000
				CHANNELS 3 Zrotation Yrotation Xrotation
				JOINT RightFoot
				{
					OFFSET -2.75667 -7.57390 0.00000
					CHANNELS 3 Zrotation Yrotation Xrotation
					JOINT RightToeBase
					{
						OFFSET -0.15946 -0.43811 1.78925
						CHANNELS 3 Zrotation Yrotation Xrotation
						End Site
						{
							OFFSET -0.00000 -0.00000 0.93158
						}
					}
				}
			}
		}
	}
	JOINT LowerBack
	{
		OFFSET 0 0 0
		CHANNELS 3 Zrotation Yrotation Xrotation
		JOINT Spine
		{
			OFFSET -0.02267 2.03993 -0.26238
			CHANNELS 3 Zrotation Yrotation Xrotation
			JOINT Spine1
			{
				OFFSET 0.02263 2.06220 -0.00892
				CHANNELS 3 Zrotation Yrotation Xrotation
				JOINT Neck
				{
					OFFSET 0 0 0
					CHANNELS 3 Zrotation Yrotation Xrotation
					JOINT Neck1
					{
						OFFSET -0.06177 1.95978 0.28606
						CHANNELS 3 Zrotation Yrotation Xrotation
						JOINT Head
						{
							OFFSET 0.08482 1.96576 -0.43252
							CHANNELS 3 Zrotation Yrotation Xrotation
							End Site
							{
								OFFSET 0.02787 2.02739 -0.18071
							}
						}
					}
				}
				JOINT LeftShoulder
				{
					OFFSET 0 0 0
					CHANNELS 3 Zrotation Yrotation Xrotation
					JOINT LeftArm
					{
						OFFSET 3.80978 1.64906 0.29973
						CHANNELS 3 Zrotation Yrotation Xrotation
						JOINT LeftForeArm
						{
							OFFSET 4.93042 -0.00000 0.00000
							CHANNELS 3 Zrotation Yrotation Xrotation
							JOINT LeftHand
							{
								OFFSET 3.68177 -0.00000 0.00000
								CHANNELS 3 Zrotation Yrotation Xrotation
								JOINT LeftFingerBase
								{
									OFFSET 0 0 0
									CHANNELS 3 Zrotation Yrotation Xrotation
									JOINT LeftHandIndex1
									{
										OFFSET 0.72148 -0.00000 0.00000
										CHANNELS 3 Zrotation Yrotation Xrotation
										End Site
										{
											OFFSET 0.58168 -0.00000 0.00000
										}
									}
								}
								JOINT LThumb
								{
									OFFSET 0 0 0
									CHANNELS 3 Zrotation Yrotation Xrotation
									End Site
									{
										OFFSET 0.59056 -0.00000 0.59056
									}
								}
							}
						}
					}
				}
				JOINT RightShoulder
				{
					OFFSET 0 0 0
					CHANNELS 3 Zrotation Yrotation Xrotation
					JOINT RightArm
					{
						OFFSET -3.49270 1.85636 0.09297
						CHANNELS 3 Zrotation Yrotation Xrotation
						JOINT RightForeArm
						{
							OFFSET -5.07905 -0.00000 -0.00000
							CHANNELS 3 Zrotation Yrotation Xrotation
							JOINT RightHand
							{
								OFFSET -3.54394 -0.00000 0.00000
								CHANNELS 3 Zrotation Yrotation Xrotation
								JOINT RightFingerBase
								{
									OFFSET 0 0 0
									CHANNELS 3 Zrotation Yrotation Xrotation
									JOINT RightHandIndex1
									{
										OFFSET -0.68116 -0.00000 0.00000
										CHANNELS 3 Zrotation Yrotation Xrotation
										End Site
										{
											OFFSET -0.54917 -0.00000 0.00000
										}
									}
								}
								JOINT RThumb
								{
									OFFSET 0 0 0
									CHANNELS 3 Zrotation Yrotation Xrotation
									End Site
									{
										OFFSET -0.55755 -0.00000 0.55755
									}
								}
							}
						}
					}
				}
			}
		}
	}
}
MOTION
Frames: 10
Frame Time: 0.2
0.00 0.00 0.00 0 0 0 0 0 0 -21 0 0 0 0 0 0 0 0 0 0 0 0 0 0 21 0 0 0 0 0 0 0 0 0 0 0 0 0 0 0 0 0 0 0 0 0 0 -16 0 0 21 0 0 11 0 0 0 -8 0 0 0 0 0 0 0 0 0 0 0 0 0 0 0 0 0 0 0 0 8 0 0 0 0 0 0 0 0 0 0 0 0 0 0 0 0 0
0.00 0.00 0.00 36.7896 89.3584 56.1997 0.0000 0.0000 0.0000 -8.0565 -14.7208 -31.2666 1.7304 8.2805 23.5693 0.4351 -0.9306 -12.1702 0.2448 -3.1840 -8.7916 0.0000 0.0000 0.0000 11.8289 2.7411 -28.4802 -0.5982 -4.9513 13.7697 0.1306 -9.3938 -10.7565 -0.1200 -2.2328 6.1495 2.5322 -0.9366 31.5367 2.1624 0.5641 7.1870 0.7260 0.5112 -9.1375 -4.3530 -1.7780 -20.5950 -0.6057 -0.9372 16.8290 0.3803 -0.7778 8.6694 0.0000 0.0000 0.0000 -90.9655 -35.5913 36.5344 15.0434 -24.2066 -3.2437 -0.0000 0.0000 -23.1363 23.4733 11.1705 4.8089 -7.1250 0.0000 -0.0000 -3.2789 42.1066 0.2343 0.0000 0.0000 0.0000 75.0448 30.8475 40.0687 -16.1138 25.6747 -3.6951 0.0000 0.0000 16.3560 -21.7579 -18.6095 7.2584 7.1250 -0.0000 -0.0000 6.3480 -49.8019 -0.7542
0.00 0.00 0.00 93.9725 87.0378 123.9870 0.0000 0.0000 0.0000 -6.5009 -18.6670 -48.8868 2.6212 10.0550 29.1551 0.3035 -1.5429 -9.9820 0.0143 -0.7722 -2.1223 0.0000 0.0000 0.0000 8.2496 1.8660 -50.0692 -1.9734 -8.8104 25.2039 -0.1042 -5.8105 -10.7683 -0.0052 0.4678 -1.2855 2.6888 -3.5832 42.1614 0.7908 -1.7175 10.1334 0.0969 -0.2645 -8.7469 -5.0349 -2.6009 -18.5570 1.0914 -2.3371 5.3620 0.9312 -1.1688 4.6418 -0.0000 -0.0000 0.0000 -83.0910 -63.8483 50.8381 13.5340 -22.0646 -2.6505 -0.0000 0.0000 -31.5426 17.3403 12.7074 3.9291 -7.1250 0.0000 -0.0000 -9.0307 43.0897 0.4295 -0.0000 -0.0000 0.0000 74.2281 59.8816 39.1078 -14.2859 23.1419 -2.9395 0.0000 0.0000 18.4898 -25.1488 -21.0382 9.5665 7.1250 -0.0000 -0.0000 3.6251 -52.9648 -0.7111
0.00 0.00 0.00 112.4380 85.8261 151.8620 0.0000 0.0000 0.0000 -1.9512 -20.2457 -69.5595 5.6114 14.0408 43.4013 0.3237 -5.9638 -10.3274 0.0632 -1.6225 -4.4636 0.0000 0.0000 0.0000 5.6078 1.3587 -71.0834 -5.2437 -13.6530 41.8650 -0.5758 -1.0832 -14.7668 -0.1086 -2.1251 5.8514 1.9755 -5.1599 52.1611 -0.0132 -3.0880 9.9560 0.3219 -0.6765 -9.7356 -3.7921 -2.3674 -15.9898 2.1284 -2.3608 -2.6866 1.2001 -1.0121 1.9666 -0.0000 0.0000 0.0000 -90.7748 -79.7247 39.5975 16.2231 -25.8223 -3.7426 -0.0000 0.0000 -34.1855 25.2001 9.0527 4.2344 -7.1250 0.0000 -0.0000 -1.5151 39.9619 0.1882 -0.0000 0.0000 0.0000 77.9968 78.6899 41.8642 -13.5409 22.0746 -2.6531 0.0000 0.0000 5.1317 -21.7063 -14.7211 5.7762 7.1250 -0.0000 -0.0000 5.4808 -45.6981 -0.0947
0.00 0.00 0.00 116.8770 84.0310 156.4430 0.0000 0.0000 0.0000 -1.9351 -22.0977 -69.6007 5.2715 13.6831 41.9826 0.3063 -5.0122 -9.9260 0.2061 -2.9233 -8.0653 0.0000 0.0000 0.0000 2.2838 2.6531 -71.3428 -5.6174 -14.0470 43.4261 -0.5631 -4.1120 -16.2713 -0.1619 -2.5920 7.1450 1.6232 -4.0822 53.0216 1.2133 -1.6757 10.1712 1.2032 -0.0676 -9.5403 -3.1358 -2.7119 -14.4947 0.9358 -2.9702 -3.3856 0.6703 -1.3627 1.4439 0.0000 -0.0000 0.0000 -109.8132 -80.0171 58.5413 17.9237 -28.0594 -4.5133 -0.0000 0.0000 -29.7837 22.4694 11.2157 4.5992 -7.1250 0.0000 -0.0000 -4.1819 42.0536 0.3046 0.0000 -0.0000 0.0000 83.2725 81.4538 31.8285 -12.2937 20.2436 -2.2029 0.0000 0.0000 8.4503 -22.7821 -14.6753 6.0735 7.1250 -0.0000 -0.0000 4.4716 -45.7886 -0.0872
0.00 0.00 0.00 178.1970 86.7601 195.9870 0.0000 0.0000 0.0000 -8.0093 -14.9295 -35.3067 2.8448 10.4395 30.4120 0.3526 -5.0813 -10.6206 0.1798 -2.7310 -7.5307 0.0000 0.0000 0.0000 11.7741 1.1775 -31.8827 -1.5445 -7.8448 22.2438 -0.1288 -8.7450 -14.6268 -0.1926 -2.8264 7.7958 0.7325 -2.3053 32.9674 3.2926 -1.3624 8.2642 3.5097 -0.3003 -7.7502 -4.8922 -2.5156 -18.6944 2.6228 -2.3460 3.1695 1.3968 -1.0310 3.9957 -0.0000 -0.0000 0.0000 -87.6694 -29.1710 56.0789 42.5538 -49.5122 -20.3608 -0.0000 0.0000 -36.0074 32.5268 19.0692 11.7693 -7.1250 0.0000 -0.0000 4.4355 52.2196 0.7896 -0.0000 -0.0000 0.0000 84.4477 33.2663 47.4445 -30.7947 41.5649 -11.9334 0.0000 0.0000 1.6927 -33.0921 -30.7604 18.4337 7.1250 -0.0000 -0.0000 -2.3190 -65.3563 1.1411
0.00 0.00 0.00 231.2710 88.3980 240.8100 0.0000 0.0000 0.0000 -9.8294 -14.0900 -15.9267 1.6198 8.0246 22.7888 0.7396 -1.0729 -15.9190 0.3313 -3.6991 -10.2316 0.0000 0.0000 0.0000 14.4064 -0.2457 -5.2310 0.0000 0.0000 -0.0000 0.5884 -14.5097 -11.2451 -0.3258 -3.6686 10.1461 1.1962 -1.3743 18.6888 2.3895 -1.1540 3.5479 2.1465 -0.4659 -6.6099 -5.4854 -2.8131 -21.4895 3.5708 -2.8185 13.0236 1.7176 -1.2675 7.6445 -0.0000 -0.0000 0.0000 -83.2690 -7.9441 61.9740 52.9357 -54.1130 -28.5360 -0.0000 0.0000 -46.3934 30.3396 17.4818 9.9718 -7.1250 0.0000 -0.0000 2.3781 50.0133 0.2940 -0.0000 -0.0000 0.0000 82.0853 8.3945 52.6714 -44.2963 50.4190 -21.6950 0.0000 -0.0000 -1.4508 -36.1801 -34.8584 22.6852 7.1250 -0.0000 -0.0000 -4.9847 -70.7150 3.0612
0.00 0.00 0.00 209.1320 88.0196 211.0490 0.0000 0.0000 0.0000 -13.0287 -14.4373 -1.1589 1.4013 7.4882 21.1701 1.2931 -0.1161 -21.4735 0.4513 -4.3101 -11.9508 0.0000 0.0000 0.0000 14.3238 -4.6987 7.0305 0.0000 -0.0000 0.0000 0.0804 -12.5029 -16.7039 -0.4043 -4.0819 11.3071 1.0378 -0.7339 3.7716 2.3302 -0.8077 -1.8690 1.8805 -0.3849 -4.0247 -6.7677 -3.7299 -24.6986 3.1759 -3.3880 29.1228 1.8103 -1.6446 14.3244 0.0000 0.0000 0.0000 -82.7420 4.7686 63.8190 78.0200 -59.4507 -49.6441 -0.0000 0.0000 -47.2655 36.4904 9.7901 7.1689 -7.1250 0.0000 -0.0000 8.5421 41.9380 -0.6505 0.0000 0.0000 0.0000 83.0564 -5.9010 47.4735 -75.7305 59.2165 -47.6748 0.0000 0.0000 3.2083 -40.9817 -33.7840 25.7837 7.1250 -0.0000 -0.0000 -13.7351 -71.1035 8.5975
0.00 0.00 0.00 227.6210 87.6859 230.1170 0.0000 0.0000 0.0000 -12.0316 -15.7487 -1.1661 1.4355 7.5753 21.4314 1.3906 1.0001 -22.6721 0.5560 -4.7763 -13.2717 0.0000 0.0000 0.0000 15.5401 -4.3578 6.4992 0.0000 -0.0000 0.0000 0.1073 -12.6858 -16.6032 -0.2852 -3.4344 9.4906 1.3684 0.1501 2.0931 2.7117 0.4225 -3.0757 2.0073 0.2391 -4.3587 -6.4947 -4.1676 -26.5597 3.3436 -4.0874 30.4322 1.6972 -1.8666 15.3556 0.0000 -0.0000 0.0000 -85.0346 -5.3511 61.2427 89.7014 -59.9997 -59.7414 -0.0000 0.0000 -48.7584 40.2729 10.5541 8.8211 -7.1250 0.0000 -0.0000 12.0994 43.3705 -0.4943 0.0000 -0.0000 0.0000 83.0778 2.7207 44.8701 -95.1941 59.8978 -64.4967 0.0000 0.0000 3.4122 -40.3314 -34.1911 25.5059 7.1250 -0.0000 -0.0000 -12.4628 -71.3403 7.8579
0.00 0.00 0.00 219.4260 88.1536 222.6560 0.0000 0.0000 0.0000 -12.1696 -15.0077 -1.9954 1.3560 7.3711 20.8195 1.2512 1.8857 -21.8883 1.0321 -6.4619 -18.1308 0.0000 0.0000 0.0000 15.2330 -3.9877 5.6238 0.0000 0.0000 -0.0000 0.1920 -13.1584 -16.1249 -0.2395 -3.1493 8.6946 1.1944 0.5675 1.8992 2.5558 0.9806 -3.4879 1.9124 0.5233 -4.6921 -6.8240 -4.5571 -26.5731 4.6420 -4.9930 29.2628 2.0891 -2.1013 14.9367 -0.0000 0.0000 0.0000 -88.4907 -21.4057 58.6808 68.8843 -58.2464 -41.8210 -0.0000 0.0000 -51.9027 39.7232 11.4073 9.3324 -7.1250 0.0000 -0.0000 11.6689 44.3604 -0.1869 -0.0000 0.0000 0.0000 83.2013 20.1241 42.5470 -80.4980 59.6561 -51.7805 0.0000 0.0000 3.9236 -39.9204 -34.7256 25.4845 7.1250 -0.0000 -0.0000 -11.5721 -71.7903 7.4059
